<svg width="14" height="14" viewBox="0 0 14 14" fill="none" xmlns="http://www.w3.org/2000/svg">
<path d="M12.2908 3.05067C11.3517 2.95734 10.4125 2.88734 9.46751 2.83484V2.829L9.33918 2.07067C9.25168 1.534 9.12334 0.729004 7.75834 0.729004H6.23001C4.87084 0.729004 4.74251 1.499 4.64918 2.06484L4.52668 2.8115C3.98418 2.8465 3.44168 2.8815 2.89918 2.934L1.70918 3.05067C1.46418 3.074 1.28918 3.28984 1.31251 3.529C1.33584 3.76817 1.54584 3.94317 1.79084 3.91984L2.98084 3.80317C6.03751 3.49984 9.11751 3.6165 12.2092 3.92567C12.2267 3.92567 12.2383 3.92567 12.2558 3.92567C12.4775 3.92567 12.67 3.7565 12.6933 3.529C12.7108 3.28984 12.5358 3.074 12.2908 3.05067Z" fill="#F77F00"/>
<path d="M11.2175 4.7485C11.0775 4.60266 10.885 4.521 10.6867 4.521H3.31335C3.11502 4.521 2.91668 4.60266 2.78252 4.7485C2.64835 4.89433 2.57252 5.09266 2.58418 5.29683L2.94585 11.2818C3.01002 12.1685 3.09168 13.2768 5.12752 13.2768H8.87252C10.9083 13.2768 10.99 12.1743 11.0542 11.2818L11.4158 5.30266C11.4275 5.09266 11.3517 4.89433 11.2175 4.7485ZM7.96835 10.3543H6.02585C5.78668 10.3543 5.58835 10.156 5.58835 9.91683C5.58835 9.67766 5.78668 9.47933 6.02585 9.47933H7.96835C8.20752 9.47933 8.40585 9.67766 8.40585 9.91683C8.40585 10.156 8.20752 10.3543 7.96835 10.3543ZM8.45835 8.021H5.54168C5.30252 8.021 5.10418 7.82266 5.10418 7.5835C5.10418 7.34433 5.30252 7.146 5.54168 7.146H8.45835C8.69752 7.146 8.89585 7.34433 8.89585 7.5835C8.89585 7.82266 8.69752 8.021 8.45835 8.021Z" fill="#F77F00"/>
</svg>
