<svg width="34" height="34" viewBox="0 0 34 34" fill="none" xmlns="http://www.w3.org/2000/svg">
<rect width="34" height="34" rx="8" fill="#F77F00"/>
<path d="M22.25 22.8335H11.75C11.5108 22.8335 11.3125 22.6352 11.3125 22.396C11.3125 22.1568 11.5108 21.9585 11.75 21.9585H22.25C22.4892 21.9585 22.6875 22.1568 22.6875 22.396C22.6875 22.6352 22.4892 22.8335 22.25 22.8335Z" fill="white"/>
<path d="M21.095 12.0301C19.9634 10.8985 18.855 10.8693 17.6942 12.0301L16.9884 12.736C16.93 12.7943 16.9067 12.8876 16.93 12.9693C17.3734 14.5151 18.61 15.7518 20.1559 16.1951C20.1792 16.201 20.2025 16.2068 20.2259 16.2068C20.29 16.2068 20.3484 16.1835 20.395 16.1368L21.095 15.431C21.6725 14.8593 21.9525 14.3051 21.9525 13.7451C21.9584 13.1676 21.6784 12.6076 21.095 12.0301Z" fill="white"/>
<path d="M19.1059 16.726C18.9367 16.6443 18.7734 16.5626 18.6159 16.4693C18.4875 16.3935 18.365 16.3118 18.2425 16.2243C18.1434 16.1601 18.0267 16.0668 17.9159 15.9735C17.9042 15.9676 17.8634 15.9326 17.8167 15.886C17.6242 15.7226 17.4084 15.5126 17.2159 15.2793C17.1984 15.2676 17.1692 15.2268 17.1284 15.1743C17.07 15.1043 16.9709 14.9876 16.8834 14.8535C16.8134 14.766 16.7317 14.6376 16.6559 14.5093C16.5625 14.3518 16.4809 14.1943 16.3992 14.031C16.2921 13.8015 15.991 13.7334 15.8119 13.9124L12.5317 17.1926C12.4559 17.2685 12.3859 17.4143 12.3684 17.5135L12.0534 19.7476C11.995 20.1443 12.1059 20.5176 12.3509 20.7685C12.5609 20.9726 12.8525 21.0835 13.1675 21.0835C13.2375 21.0835 13.3075 21.0776 13.3775 21.066L15.6175 20.751C15.7225 20.7335 15.8684 20.6635 15.9384 20.5876L19.224 17.302C19.3995 17.1265 19.3335 16.8246 19.1059 16.726Z" fill="white"/>
</svg>
