<svg width="25" height="25" viewBox="0 0 25 25" fill="none" xmlns="http://www.w3.org/2000/svg">
<path d="M22.25 15.5V9.5C22.25 4.5 20.25 2.5 15.25 2.5H9.25C4.25 2.5 2.25 4.5 2.25 9.5V15.5C2.25 20.5 4.25 22.5 9.25 22.5H15.25C20.25 22.5 22.25 20.5 22.25 15.5Z" stroke="#9A9A9A" stroke-width="1.5" stroke-linecap="round" stroke-linejoin="round"/>
<path d="M2.77002 7.60986H21.73" stroke="#9A9A9A" stroke-width="1.5" stroke-linecap="round" stroke-linejoin="round"/>
<path d="M8.77002 2.60986V7.46986" stroke="#9A9A9A" stroke-width="1.5" stroke-linecap="round" stroke-linejoin="round"/>
<path d="M15.73 2.60986V7.01986" stroke="#9A9A9A" stroke-width="1.5" stroke-linecap="round" stroke-linejoin="round"/>
<path d="M10 14.9501V13.7501C10 12.2101 11.09 11.5801 12.42 12.3501L13.46 12.9501L14.5 13.5501C15.83 14.3201 15.83 15.5801 14.5 16.3501L13.46 16.9501L12.42 17.5501C11.09 18.3201 10 17.6901 10 16.1501V14.9501V14.9501Z" stroke="#9A9A9A" stroke-width="1.5" stroke-miterlimit="10" stroke-linecap="round" stroke-linejoin="round"/>
</svg>
